<?xml version="1.0" encoding="UTF-8" standalone="no"?>
<svg
   viewBox="0 0 256 256"
   role="img"
   aria-label="Droplet and ripple logo"
   version="1.1"
   id="svg4"
   width="256"
   height="256"
   xmlns="http://www.w3.org/2000/svg"
   xmlns:svg="http://www.w3.org/2000/svg">
  <defs
     id="defs2">
    <linearGradient
       id="drop"
       x1="129.24396"
       y1="37.139069"
       x2="129.24396"
       y2="123.3017"
       gradientTransform="scale(0.74278135,1.3462912)"
       gradientUnits="userSpaceOnUse">
      <stop
         offset="0%"
         stop-color="#ffd271"
         id="stop1" />
      <stop
         offset="100%"
         stop-color="#f59a2e"
         id="stop2" />
    </linearGradient>
  </defs>
  <!-- rounded tile (delete this rect for a transparent mark) -->
  <rect
     width="256"
     height="256"
     rx="56"
     fill="#161b27"
     id="rect2"
     x="0"
     y="0" />
  <!-- ripple rings -->
  <g
     fill="none"
     stroke="#e8eef7"
     stroke-width="5"
     stroke-linecap="round"
     id="g4"
     style="stroke:#7498cf;stroke-width:10;stroke-dasharray:none;stroke-opacity:1">
    <path
       style="baseline-shift:baseline;display:inline;overflow:visible;opacity:0.95;vector-effect:none;fill:#7498cf;stroke:none;stroke-linecap:butt;enable-background:accumulate;stop-color:#000000;stop-opacity:1"
       d="m 128,154 c -9.82596,0 -18.7186,1.24496 -25.58008,3.46484 -3.430735,1.10995 -6.366473,2.43118 -8.785154,4.28125 C 91.216084,163.59617 89,166.39315 89,170 c 0,3.60685 2.216084,6.40383 4.634766,8.25391 2.418681,1.85007 5.354419,3.1713 8.785154,4.28125 C 109.2814,184.75504 118.17404,186 128,186 c 9.82596,0 18.7186,-1.24496 25.58008,-3.46484 3.43074,-1.10995 6.36647,-2.43118 8.78515,-4.28125 C 164.78392,176.40383 167,173.60685 167,170 c 0,-3.60685 -2.21608,-6.40383 -4.63477,-8.25391 -2.41868,-1.85007 -5.35441,-3.1713 -8.78515,-4.28125 C 146.7186,155.24496 137.82596,154 128,154 Z m 0,10 c 8.95172,0 17.05785,1.21719 22.50195,2.97852 2.72206,0.88066 4.76676,1.92896 5.78907,2.71093 0.23952,0.18322 0.23155,0.20225 0.3457,0.31055 -0.11415,0.1083 -0.10618,0.12733 -0.3457,0.31055 -1.02231,0.78197 -3.06701,1.83027 -5.78907,2.71093 C 145.05785,174.78281 136.95172,176 128,176 c -8.95172,0 -17.05785,-1.21719 -22.50195,-2.97852 -2.72206,-0.88066 -4.76676,-1.92896 -5.789066,-2.71093 C 99.469459,170.12733 99.47743,170.1083 99.363281,170 c 0.114149,-0.1083 0.106178,-0.12733 0.345703,-0.31055 1.022306,-0.78197 3.067006,-1.83027 5.789066,-2.71093 C 110.94215,165.21719 119.04828,164 128,164 Z"
       id="ellipse2" />
    <path
       style="baseline-shift:baseline;display:inline;overflow:visible;opacity:0.7;vector-effect:none;fill:#7498cf;stroke:none;stroke-linecap:butt;enable-background:accumulate;stop-color:#000000;stop-opacity:1"
       d="m 128,143 c -19.2148,0 -36.608783,2.47505 -49.623047,6.68555 -6.507132,2.10525 -11.931138,4.6132 -16.070312,7.77929 C 58.167466,160.63094 55,164.87437 55,170 c 0,5.12563 3.167466,9.36906 7.306641,12.53516 4.139174,3.16609 9.56318,5.67404 16.070312,7.77929 C 91.391217,194.52495 108.7852,197 128,197 c 19.2148,0 36.60878,-2.47505 49.62305,-6.68555 6.50713,-2.10525 11.93113,-4.6132 16.07031,-7.77929 C 197.83253,179.36906 201,175.12563 201,170 c 0,-5.12563 -3.16747,-9.36906 -7.30664,-12.53516 -4.13918,-3.16609 -9.56318,-5.67404 -16.07031,-7.77929 C 164.60878,145.47505 147.2148,143 128,143 Z m 0,10 c 18.34056,0 34.94803,2.44924 46.54492,6.20117 5.79845,1.87597 10.33142,4.10904 13.07422,6.20703 2.7428,2.098 3.38086,3.6423 3.38086,4.5918 0,0.9495 -0.63806,2.4938 -3.38086,4.5918 -2.7428,2.09799 -7.27577,4.33106 -13.07422,6.20703 C 162.94803,184.55076 146.34056,187 128,187 109.65944,187 93.051973,184.55076 81.455078,180.79883 75.65663,178.92286 71.123659,176.68979 68.380859,174.5918 65.63806,172.4938 65,170.9495 65,170 c 0,-0.9495 0.63806,-2.4938 3.380859,-4.5918 2.7428,-2.09799 7.275771,-4.33106 13.074219,-6.20703 C 93.051973,155.44924 109.65944,153 128,153 Z"
       id="ellipse3" />
    <path
       style="baseline-shift:baseline;display:inline;overflow:visible;opacity:0.45;vector-effect:none;fill:#7498cf;stroke:none;stroke-linecap:butt;enable-background:accumulate;stop-color:#000000;stop-opacity:1"
       d="m 128,132 c -28.603643,0 -54.497009,3.7071 -73.664063,9.9082 -9.583526,3.10056 -17.497753,6.79328 -23.357421,11.27539 C 25.118847,157.66571 21,163.35559 21,170 c 0,6.64441 4.118847,12.33429 9.978516,16.81641 5.859668,4.48211 13.773895,8.17483 23.357421,11.27539 C 73.502991,204.2929 99.396357,208 128,208 c 28.60364,0 54.49701,-3.7071 73.66406,-9.9082 9.58353,-3.10056 17.49776,-6.79328 23.35742,-11.27539 C 230.88115,182.33429 235,176.64441 235,170 c 0,-6.64441 -4.11885,-12.33429 -9.97852,-16.81641 -5.85966,-4.48211 -13.77389,-8.17483 -23.35742,-11.27539 C 182.49701,135.7071 156.60364,132 128,132 Z m 0,10 c 27.7294,0 52.83625,3.67933 70.58594,9.42187 8.87484,2.87128 15.89803,6.29107 20.36133,9.70508 C 223.41056,164.54097 225,167.53171 225,170 c 0,2.46829 -1.58944,5.45903 -6.05273,8.87305 -4.4633,3.41401 -11.48649,6.8338 -20.36133,9.70507 C 180.83625,194.32067 155.7294,198 128,198 100.2706,198 75.163748,194.32067 57.414062,188.57812 48.53922,185.70685 41.516028,182.28706 37.052734,178.87305 32.589441,175.45903 31,172.46829 31,170 c 0,-2.46829 1.589441,-5.45903 6.052734,-8.87305 4.463294,-3.41401 11.486486,-6.8338 20.361328,-9.70508 C 75.163748,145.67933 100.2706,142 128,142 Z"
       id="ellipse4" />
  </g>
  <!-- droplet -->
  <path
     d="m 128,50 c 4,34 32,60 32,84 a 32,32 0 1 1 -64,0 c 0,-24 28,-50 32,-84 z"
     fill="url(#drop)"
     id="path4"
     style="fill:url(#drop)" />
</svg>
